<svg width="318" height="68" viewBox="0 0 318 68" fill="none" xmlns="http://www.w3.org/2000/svg">
<g clip-path="url(#clip0_544_5618)" filter="url(#filter0_dd_544_5618)">
<rect x="6" y="4" width="56.1002" height="56.1002" rx="12.2719" fill="url(#paint0_linear_544_5618)"/>
<path fill-rule="evenodd" clip-rule="evenodd" d="M20.8429 15.7686C19.5448 15.7686 18.4925 16.8209 18.4925 18.1191V44.4444C18.4925 45.7425 19.5447 46.7948 20.8428 46.7949C21.3381 46.795 21.7971 47.0549 22.052 47.4796L23.5215 49.9289H26.9389L28.4084 47.4796C28.6633 47.0548 29.1224 46.7949 29.6177 46.7949H38.3926C38.888 46.7949 39.3471 47.0548 39.602 47.4796L41.0715 49.9289H44.4889L45.9584 47.4796C46.2133 47.0548 46.6724 46.7949 47.1677 46.7949H47.1683C48.4665 46.7949 49.5188 45.7426 49.5188 44.4444V18.1191C49.5188 16.8209 48.4665 15.7686 47.1683 15.7686H20.8429ZM15.6719 18.1191C15.6719 15.2632 17.987 12.948 20.8429 12.948H47.1683C50.0242 12.948 52.3394 15.2632 52.3394 18.1191V44.4444C52.3394 47.0148 50.464 49.1472 48.0068 49.5479L46.4967 52.0647C46.2418 52.4895 45.7828 52.7495 45.2874 52.7495H40.273C39.7776 52.7495 39.3186 52.4895 39.0637 52.0647L37.5942 49.6155H30.4162L28.9467 52.0647C28.6918 52.4895 28.2328 52.7495 27.7374 52.7495H22.723C22.2276 52.7495 21.7686 52.4895 21.5137 52.0647L20.0035 49.5477C17.5468 49.1467 15.6719 47.0145 15.6719 44.4444V18.1191Z" fill="white"/>
<path fill-rule="evenodd" clip-rule="evenodd" d="M34.0056 22.231C34.7845 22.231 35.4159 22.8624 35.4159 23.6413V25.9248C34.9654 25.8083 34.493 25.7463 34.0061 25.7463C33.5188 25.7463 33.0461 25.8084 32.5953 25.9251V23.6413C32.5953 22.8624 33.2267 22.231 34.0056 22.231ZM30.9959 26.6209L29.4033 25.0283C28.8525 24.4776 27.9596 24.4776 27.4088 25.0283C26.8581 25.5791 26.8581 26.472 27.4088 27.0228L29.0703 28.6842C29.5268 27.8437 30.1918 27.1328 30.9959 26.6209ZM28.5717 29.949H26.2884C25.5095 29.949 24.8781 30.5804 24.8781 31.3593C24.8781 32.1382 25.5095 32.7696 26.2884 32.7696L28.5716 32.7696C28.455 32.319 28.393 31.8464 28.393 31.3594C28.393 30.8723 28.455 30.3997 28.5717 29.949ZM29.2602 34.358L27.6749 35.9433C27.1241 36.4941 27.1241 37.387 27.6749 37.9378C28.2256 38.4885 29.1186 38.4885 29.6693 37.9378L31.3186 36.2885C30.4793 35.83 29.7701 35.1633 29.2602 34.358ZM32.5953 36.7937V39.0773C32.5953 39.8561 33.2267 40.4876 34.0056 40.4876C34.7845 40.4876 35.4159 39.8561 35.4159 39.0773V36.794C34.9654 36.9105 34.493 36.9725 34.0061 36.9725C33.5188 36.9725 33.0461 36.9104 32.5953 36.7937ZM36.6813 36.2952L38.3237 37.9377C38.8745 38.4884 39.7674 38.4884 40.3182 37.9377C40.8689 37.3869 40.8689 36.494 40.3182 35.9432L38.7446 34.3696C38.2327 35.1737 37.5218 35.8387 36.6813 36.2952ZM39.4405 32.7696H41.7244C42.5033 32.7696 43.1347 32.1382 43.1347 31.3593C43.1347 30.5804 42.5033 29.949 41.7244 29.949H39.4405C39.5571 30.3997 39.6192 30.8723 39.6192 31.3594C39.6192 31.8464 39.5571 32.319 39.4405 32.7696ZM38.9352 28.6719L40.5842 27.0229C41.135 26.4721 41.135 25.5792 40.5842 25.0284C40.0335 24.4776 39.1405 24.4776 38.5898 25.0284L37.0047 26.6135C37.81 27.1234 38.4766 27.8327 38.9352 28.6719Z" fill="white"/>
<path d="M37.7669 31.3593C37.7669 33.4363 36.0831 35.1201 34.0061 35.1201C31.9291 35.1201 30.2454 33.4363 30.2454 31.3593C30.2454 29.2823 31.9291 27.5985 34.0061 27.5985C36.0831 27.5985 37.7669 29.2823 37.7669 31.3593Z" fill="white"/>
</g>
<path d="M87.5298 44.3221L80.2334 18.822H86.1228L90.3438 36.5401H90.5555L95.2122 18.822H100.255L104.899 36.5775H105.123L109.344 18.822H115.234L107.937 44.3221H102.683L97.827 27.6499H97.6278L92.7842 44.3221H87.5298Z" fill="white"/>
<path d="M118.02 44.3221V25.1971H123.324V44.3221H118.02ZM120.684 22.7317C119.896 22.7317 119.219 22.4702 118.655 21.9473C118.099 21.416 117.821 20.781 117.821 20.0422C117.821 19.3118 118.099 18.6851 118.655 18.1621C119.219 17.6309 119.896 17.3652 120.684 17.3652C121.473 17.3652 122.145 17.6309 122.701 18.1621C123.266 18.6851 123.548 19.3118 123.548 20.0422C123.548 20.781 123.266 21.416 122.701 21.9473C122.145 22.4702 121.473 22.7317 120.684 22.7317Z" fill="white"/>
<path d="M143.486 30.6507L138.63 30.9495C138.547 30.5345 138.368 30.1609 138.094 29.8289C137.82 29.4886 137.459 29.2188 137.011 29.0196C136.571 28.8121 136.044 28.7083 135.43 28.7083C134.608 28.7083 133.915 28.8826 133.35 29.2313C132.786 29.5716 132.504 30.0281 132.504 30.6009C132.504 31.0574 132.686 31.4434 133.051 31.7589C133.417 32.0743 134.043 32.3275 134.932 32.5184L138.393 33.2156C140.252 33.5975 141.639 34.2117 142.552 35.0584C143.465 35.9051 143.921 37.0174 143.921 38.3954C143.921 39.6488 143.552 40.7486 142.813 41.6949C142.083 42.6412 141.078 43.38 139.8 43.9112C138.53 44.4342 137.065 44.6957 135.405 44.6957C132.873 44.6957 130.856 44.1686 129.353 43.1144C127.859 42.0519 126.984 40.6075 126.726 38.7813L131.943 38.5074C132.101 39.2794 132.483 39.8687 133.089 40.2755C133.695 40.6739 134.471 40.8731 135.417 40.8731C136.347 40.8731 137.094 40.6947 137.658 40.3377C138.231 39.9725 138.522 39.5035 138.53 38.9308C138.522 38.4493 138.318 38.055 137.92 37.7479C137.521 37.4325 136.907 37.1917 136.077 37.0257L132.765 36.3658C130.897 35.9923 129.507 35.3448 128.594 34.4234C127.689 33.502 127.237 32.3275 127.237 30.8997C127.237 29.6712 127.569 28.6128 128.233 27.7247C128.905 26.8365 129.847 26.1516 131.059 25.6702C132.28 25.1888 133.707 24.948 135.343 24.948C137.758 24.948 139.659 25.4585 141.045 26.4795C142.44 27.5005 143.253 28.8909 143.486 30.6507Z" fill="white"/>
<path d="M154.309 44.6334C152.856 44.6334 151.541 44.2599 150.362 43.5128C149.191 42.7574 148.262 41.6493 147.573 40.1883C146.892 38.7191 146.552 36.9178 146.552 34.7845C146.552 32.5931 146.905 30.7711 147.61 29.3184C148.316 27.8575 149.254 26.7659 150.424 26.0437C151.603 25.3133 152.894 24.948 154.296 24.948C155.367 24.948 156.26 25.1306 156.973 25.4959C157.696 25.8528 158.277 26.3011 158.717 26.8406C159.165 27.3719 159.505 27.8948 159.738 28.4095H159.899V18.822H165.191V44.3221H159.962V41.2591H159.738C159.489 41.7904 159.136 42.3175 158.679 42.8404C158.231 43.3551 157.646 43.7826 156.924 44.1229C156.21 44.4632 155.338 44.6334 154.309 44.6334ZM155.99 40.4125C156.845 40.4125 157.567 40.18 158.156 39.7152C158.754 39.242 159.21 38.5821 159.526 37.7354C159.85 36.8888 160.011 35.8968 160.011 34.7596C160.011 33.6224 159.854 32.6346 159.538 31.7962C159.223 30.9578 158.766 30.3104 158.169 29.8538C157.571 29.3973 156.845 29.169 155.99 29.169C155.118 29.169 154.384 29.4056 153.786 29.8787C153.188 30.3519 152.736 31.0076 152.429 31.846C152.122 32.6844 151.968 33.6556 151.968 34.7596C151.968 35.8719 152.122 36.8556 152.429 37.7105C152.744 38.5572 153.197 39.2213 153.786 39.7027C154.384 40.1759 155.118 40.4125 155.99 40.4125Z" fill="white"/>
<path d="M178.193 44.6957C176.259 44.6957 174.587 44.2848 173.176 43.463C171.773 42.6329 170.689 41.4791 169.926 40.0016C169.162 38.5157 168.78 36.7933 168.78 34.8343C168.78 32.8587 169.162 31.1321 169.926 29.6546C170.689 28.1687 171.773 27.0149 173.176 26.1932C174.587 25.3631 176.259 24.948 178.193 24.948C180.127 24.948 181.796 25.3631 183.199 26.1932C184.61 27.0149 185.697 28.1687 186.461 29.6546C187.225 31.1321 187.607 32.8587 187.607 34.8343C187.607 36.7933 187.225 38.5157 186.461 40.0016C185.697 41.4791 184.61 42.6329 183.199 43.463C181.796 44.2848 180.127 44.6957 178.193 44.6957ZM178.218 40.5868C179.098 40.5868 179.833 40.3377 180.422 39.8397C181.012 39.3333 181.456 38.6444 181.754 37.7728C182.062 36.9012 182.215 35.9093 182.215 34.7969C182.215 33.6846 182.062 32.6927 181.754 31.8211C181.456 30.9495 181.012 30.2606 180.422 29.7542C179.833 29.2479 179.098 28.9947 178.218 28.9947C177.33 28.9947 176.583 29.2479 175.977 29.7542C175.379 30.2606 174.927 30.9495 174.62 31.8211C174.321 32.6927 174.172 33.6846 174.172 34.7969C174.172 35.9093 174.321 36.9012 174.62 37.7728C174.927 38.6444 175.379 39.3333 175.977 39.8397C176.583 40.3377 177.33 40.5868 178.218 40.5868Z" fill="white"/>
<path d="M191.055 44.3221V25.1971H196.111V28.5713H196.335C196.733 27.4507 197.397 26.5667 198.327 25.9192C199.257 25.2718 200.369 24.948 201.664 24.948C202.975 24.948 204.092 25.2759 205.013 25.9317C205.935 26.5791 206.549 27.459 206.856 28.5713H207.055C207.445 27.4756 208.151 26.5999 209.172 25.9441C210.201 25.2801 211.417 24.948 212.82 24.948C214.605 24.948 216.053 25.5166 217.166 26.6538C218.286 27.7828 218.847 29.3848 218.847 31.46V44.3221H213.555V32.5059C213.555 31.4434 213.273 30.6465 212.708 30.1153C212.144 29.584 211.438 29.3184 210.591 29.3184C209.629 29.3184 208.877 29.6255 208.338 30.2398C207.798 30.8458 207.528 31.6468 207.528 32.6429V44.3221H202.386V32.3939C202.386 31.4559 202.116 30.7088 201.577 30.1526C201.046 29.5965 200.344 29.3184 199.473 29.3184C198.883 29.3184 198.352 29.4678 197.879 29.7667C197.414 30.0572 197.045 30.4681 196.771 30.9993C196.497 31.5223 196.36 32.1365 196.36 32.8421V44.3221H191.055Z" fill="white"/>
<path d="M235.858 18.822L242.021 38.1961H242.258L248.434 18.822H254.41L245.62 44.3221H238.672L229.869 18.822H235.858Z" fill="white"/>
<path d="M260.711 44.6832C259.491 44.6832 258.403 44.4715 257.449 44.0482C256.494 43.6166 255.739 42.9816 255.182 42.1432C254.635 41.2965 254.361 40.2423 254.361 38.9806C254.361 37.9181 254.556 37.0257 254.946 36.3035C255.336 35.5814 255.867 35.0003 256.54 34.5604C257.212 34.1204 257.976 33.7884 258.831 33.5643C259.694 33.3402 260.599 33.1824 261.545 33.0911C262.657 32.9749 263.554 32.867 264.234 32.7674C264.915 32.6595 265.409 32.5018 265.716 32.2943C266.023 32.0867 266.177 31.7796 266.177 31.3729V31.2982C266.177 30.5096 265.928 29.8995 265.43 29.4678C264.94 29.0362 264.243 28.8204 263.338 28.8204C262.383 28.8204 261.624 29.032 261.059 29.4554C260.495 29.8704 260.121 30.3934 259.939 31.0242L255.033 30.6258C255.282 29.4637 255.772 28.4593 256.502 27.6126C257.233 26.7576 258.175 26.1018 259.329 25.6453C260.491 25.1805 261.835 24.948 263.363 24.948C264.425 24.948 265.442 25.0725 266.413 25.3216C267.393 25.5706 268.26 25.9566 269.016 26.4795C269.779 27.0025 270.381 27.6748 270.821 28.4966C271.261 29.3101 271.481 30.2855 271.481 31.4227V44.3221H266.451V41.67H266.301C265.994 42.2677 265.583 42.7948 265.069 43.2513C264.554 43.6996 263.936 44.0524 263.213 44.3097C262.491 44.5587 261.657 44.6832 260.711 44.6832ZM262.23 41.0226C263.01 41.0226 263.699 40.869 264.297 40.5619C264.894 40.2464 265.363 39.8231 265.704 39.2918C266.044 38.7606 266.214 38.1588 266.214 37.4864V35.4569C266.048 35.5648 265.82 35.6644 265.529 35.7557C265.247 35.8387 264.928 35.9176 264.571 35.9923C264.214 36.0587 263.857 36.1209 263.5 36.179C263.143 36.2288 262.819 36.2745 262.529 36.316C261.906 36.4073 261.362 36.5526 260.898 36.7518C260.433 36.951 260.072 37.2208 259.814 37.5611C259.557 37.8932 259.428 38.3082 259.428 38.8062C259.428 39.5284 259.69 40.0804 260.213 40.4623C260.744 40.8358 261.416 41.0226 262.23 41.0226Z" fill="white"/>
<path d="M287.861 36.179V25.1971H293.165V44.3221H288.072V40.8482H287.873C287.441 41.9689 286.723 42.8695 285.719 43.5502C284.723 44.2308 283.507 44.5712 282.071 44.5712C280.792 44.5712 279.668 44.2806 278.697 43.6996C277.725 43.1185 276.966 42.2926 276.418 41.2218C275.878 40.151 275.604 38.8685 275.596 37.3744V25.1971H280.9V36.4281C280.909 37.557 281.212 38.4493 281.809 39.1051C282.407 39.7608 283.208 40.0887 284.212 40.0887C284.852 40.0887 285.449 39.9435 286.005 39.6529C286.562 39.3541 287.01 38.9142 287.35 38.3331C287.699 37.752 287.869 37.034 287.861 36.179Z" fill="white"/>
<path d="M302.712 18.822V44.3221H297.408V18.822H302.712Z" fill="white"/>
<path d="M317.133 25.1971V29.1814H305.616V25.1971H317.133ZM308.231 20.615H313.535V38.4452C313.535 38.9349 313.61 39.3167 313.759 39.5907C313.909 39.8563 314.116 40.0431 314.382 40.151C314.656 40.2589 314.971 40.3128 315.328 40.3128C315.577 40.3128 315.826 40.2921 316.075 40.2506C316.324 40.2008 316.515 40.1634 316.648 40.1385L317.482 44.0856C317.216 44.1686 316.843 44.264 316.361 44.3719C315.88 44.4882 315.295 44.5587 314.606 44.5836C313.328 44.6334 312.207 44.4632 311.244 44.0731C310.289 43.683 309.547 43.077 309.015 42.2552C308.484 41.4335 308.223 40.3958 308.231 39.1424V20.615Z" fill="white"/>
<defs>
<filter id="filter0_dd_544_5618" x="0.740604" y="0.493736" width="66.6194" height="66.6189" filterUnits="userSpaceOnUse" color-interpolation-filters="sRGB">
<feFlood flood-opacity="0" result="BackgroundImageFix"/>
<feColorMatrix in="SourceAlpha" type="matrix" values="0 0 0 0 0 0 0 0 0 0 0 0 0 0 0 0 0 0 127 0" result="hardAlpha"/>
<feOffset dy="1.75313"/>
<feGaussianBlur stdDeviation="1.75313"/>
<feColorMatrix type="matrix" values="0 0 0 0 0.0627451 0 0 0 0 0.0941176 0 0 0 0 0.156863 0 0 0 0.06 0"/>
<feBlend mode="normal" in2="BackgroundImageFix" result="effect1_dropShadow_544_5618"/>
<feColorMatrix in="SourceAlpha" type="matrix" values="0 0 0 0 0 0 0 0 0 0 0 0 0 0 0 0 0 0 127 0" result="hardAlpha"/>
<feOffset dy="1.75313"/>
<feGaussianBlur stdDeviation="2.6297"/>
<feColorMatrix type="matrix" values="0 0 0 0 0.0627451 0 0 0 0 0.0941176 0 0 0 0 0.156863 0 0 0 0.1 0"/>
<feBlend mode="normal" in2="effect1_dropShadow_544_5618" result="effect2_dropShadow_544_5618"/>
<feBlend mode="normal" in="SourceGraphic" in2="effect2_dropShadow_544_5618" result="shape"/>
</filter>
<linearGradient id="paint0_linear_544_5618" x1="34.0501" y1="4" x2="34.0501" y2="60.1002" gradientUnits="userSpaceOnUse">
<stop stop-color="#3B83F6"/>
<stop offset="1" stop-color="#1E40AF"/>
</linearGradient>
<clipPath id="clip0_544_5618">
<rect width="56.1002" height="56.1002" fill="white" transform="translate(6 4)"/>
</clipPath>
</defs>
</svg>
